<svg id="Digital_content" height="512" viewBox="0 0 64 64" width="512" xmlns="http://www.w3.org/2000/svg" data-name="Digital content"><path d="m48 35h2v2h-2z"/><path d="m21 38c2.243 0 4-1.318 4-3h-2c0 .408-.779 1-2 1s-2-.592-2-1h-2c0 1.682 1.757 3 4 3z"/><path d="m46.474 53.851a1 1 0 0 0 .973.044l4-2a1 1 0 0 0 0-1.79l-4-2a1 1 0 0 0 -1.447.895v4a1 1 0 0 0 .474.851zm1.526-3.233.764.382-.764.382z"/><path d="m44 35h2v2h-2z"/><path d="m52 35h2v2h-2z"/><path d="m18 32a1 1 0 0 0 1-1v-1a1 1 0 0 0 -2 0v1a1 1 0 0 0 1 1z"/><path d="m24 32a1 1 0 0 0 1-1v-1a1 1 0 0 0 -2 0v1a1 1 0 0 0 1 1z"/><path d="m61 2h-58a1 1 0 0 0 -1 1v58a1 1 0 0 0 1 1h58a1 1 0 0 0 1-1v-58a1 1 0 0 0 -1-1zm-27 58h-3v-3h-2v3h-16v-3h-2v3h-3v-6.54a4.959 4.959 0 0 1 3.57-4.78l1.79-.54c1 2.26 4.03 3.86 7.64 3.86s6.64-1.6 7.64-3.86l1.79.54a4.959 4.959 0 0 1 3.57 4.78zm-20-34.43a8.563 8.563 0 0 0 2.69.43h11.31v8a7 7 0 0 1 -14 0zm-4-8.26v-.31h13a5 5 0 0 1 5 5v2h-11.31a6.7 6.7 0 0 1 -6.69-6.69zm7.98 25.16a8.869 8.869 0 0 0 6.04 0 5.912 5.912 0 0 0 2.79 4.87c-.67 1.51-3.08 2.66-5.81 2.66s-5.14-1.15-5.81-2.66a5.912 5.912 0 0 0 2.79-4.87zm42.02 17.53h-24v-6.54a6.966 6.966 0 0 0 -4.99-6.7l-2.16-.65a3.978 3.978 0 0 1 -2.85-3.83v-.8a9.01 9.01 0 0 0 4-7.48v-2h1a3.009 3.009 0 0 0 3-3v-1a3.009 3.009 0 0 0 -3-3h-1v-3a7.008 7.008 0 0 0 -7-7h-14a1 1 0 0 0 -1 1v1.31a8.689 8.689 0 0 0 4 7.3v.39h-1a3.009 3.009 0 0 0 -3 3v1a3.009 3.009 0 0 0 3 3h1v2a9.01 9.01 0 0 0 4 7.48v.8a3.978 3.978 0 0 1 -2.85 3.83l-2.16.65a6.966 6.966 0 0 0 -4.99 6.7v6.54h-2v-48h56zm-30-30v-3h1a1 1 0 0 1 1 1v1a1 1 0 0 1 -1 1zm-18-3v3h-1a1 1 0 0 1 -1-1v-1a1 1 0 0 1 1-1zm48-17h-56v-6h56z"/><path d="m57 44h-16a1 1 0 0 0 -1 1v12a1 1 0 0 0 1 1h16a1 1 0 0 0 1-1v-12a1 1 0 0 0 -1-1zm-1 12h-14v-10h14z"/><path d="m57 30h-16a1 1 0 0 0 -1 1v10a1 1 0 0 0 1 1h16a1 1 0 0 0 1-1v-10a1 1 0 0 0 -1-1zm-1 10h-14v-8h14z"/><path d="m57 15h-16a1 1 0 0 0 -1 1v11a1 1 0 0 0 1 1h16a1 1 0 0 0 1-1v-11a1 1 0 0 0 -1-1zm-3.49 2-3.98 2.49a1.011 1.011 0 0 1 -1.06 0l-3.98-2.49zm2.49 9h-14v-8.2l5.41 3.39a3.034 3.034 0 0 0 3.18 0l5.41-3.39z"/><path d="m6 6h2v2h-2z"/><path d="m10 6h2v2h-2z"/><path d="m14 6h2v2h-2z"/></svg>