<?xml version="1.0" encoding="iso-8859-1"?>
<!-- Generator: Adobe Illustrator 19.0.0, SVG Export Plug-In . SVG Version: 6.00 Build 0)  -->
<svg version="1.1" id="Layer_1" xmlns="http://www.w3.org/2000/svg" xmlns:xlink="http://www.w3.org/1999/xlink" x="0px" y="0px"
	 viewBox="0 0 512.001 512.001" style="enable-background:new 0 0 512.001 512.001;" xml:space="preserve">
<path style="fill:#0069A3;" d="M322.653,197.203H189.347v289.946c0,9.237,7.488,16.725,16.725,16.725h99.857
	c9.237,0,16.725-7.488,16.725-16.725V197.203H322.653z"/>
<rect x="189.351" y="358.126" style="fill:#8CCFDE;" width="133.302" height="43.34"/>
<path style="opacity:0.15;enable-background:new    ;" d="M322.653,318.347V197.203H189.347v289.946
	c0,9.237,7.488,16.724,16.725,16.724h99.857c8.576,0,15.635-6.459,16.601-14.774c-0.936,0.163-1.894,0.264-2.878,0.264h-99.857
	c-9.237,0-16.725-7.488-16.725-16.724V236.776c2.383-7.122,9.095-12.261,17.018-12.261l0,0c9.916,0,17.956,8.038,17.956,17.956
	v26.276c0,9.916,8.038,17.956,17.956,17.956c9.916,0,17.956-8.038,17.956-17.956v-7.878c0-9.916,8.038-17.956,17.956-17.956l0,0
	c9.916,0,17.956,8.038,17.956,17.956v40.285C309.865,309.273,315.257,316.126,322.653,318.347z"/>
<path style="fill:#F5DF5D;" d="M314.512,104.93c0-32.315-33.793-96.804-58.512-96.804s-58.513,64.489-58.513,96.804
	s26.197,58.512,58.512,58.512C288.316,163.442,314.512,137.246,314.512,104.93z"/>
<path style="fill:#E45D4C;" d="M279.929,106.255c0-13.216-13.82-39.59-23.93-39.59c-10.109,0-23.93,26.373-23.93,39.59
	s10.714,23.93,23.93,23.93C269.216,130.185,279.929,119.471,279.929,106.255z"/>
<path style="fill:#8CCFDE;" d="M324.955,163.442H187.044c-11.499,0-20.82,9.321-20.82,20.82v59.908
	c0,9.916,8.038,17.956,17.956,17.956l0,0c9.916,0,17.956-8.038,17.956-17.956v-13.618c0-9.916,8.038-17.956,17.956-17.956l0,0
	c9.916,0,17.956,8.038,17.956,17.956v26.276c0,9.916,8.038,17.956,17.956,17.956l0,0c9.916,0,17.956-8.038,17.956-17.956v-7.878
	c0-9.916,8.038-17.956,17.956-17.956l0,0c9.916,0,17.956,8.038,17.956,17.956v40.285c0,9.916,8.038,17.956,17.956,17.956l0,0
	c9.916,0,17.956-8.038,17.956-17.956V184.263C345.776,172.764,336.454,163.442,324.955,163.442z"/>
<path style="opacity:0.15;enable-background:new    ;" d="M187.971,252.465c-9.916,0-17.956-8.038-17.956-17.956v-59.908
	c0-0.855,0.067-1.692,0.167-2.519c-2.48,3.427-3.959,7.627-3.959,12.181v59.908c0,9.916,8.038,17.956,17.956,17.956
	c9.429,0,17.144-7.271,17.882-16.509C198.773,249.782,193.69,252.465,187.971,252.465z M259.792,265.122
	c-9.916,0-17.956-8.038-17.956-17.956v-26.276c0-9.916-8.038-17.956-17.956-17.956l0,0c-11.88,0-21.511,9.631-21.511,21.511v3.326
	c1.339-8.593,8.75-15.176,17.718-15.176l0,0c9.916,0,17.956,8.038,17.956,17.956v26.276c0,9.916,8.038,17.956,17.956,17.956
	c9.429,0,17.144-7.271,17.882-16.509C270.594,262.44,265.511,265.122,259.792,265.122z M331.613,297.53L331.613,297.53
	c-9.916,0-17.956-8.038-17.956-17.956v-40.285c0-9.916-8.038-17.956-17.956-17.956l0,0c-11.952,0-21.641,9.689-21.641,21.641v4.049
	c0.961-9.01,8.583-16.029,17.848-16.029l0,0c9.916,0,17.956,8.038,17.956,17.956v40.285c0,9.916,8.038,17.956,17.956,17.956l0,0
	c9.428,0,17.144-7.271,17.882-16.509C342.415,294.848,337.332,297.53,331.613,297.53z"/>
<g>
	<path style="opacity:0.2;fill:#FFFFFF;enable-background:new    ;" d="M324.955,163.442H205.559
		c18.755,22.378,46.911,36.613,78.394,36.613c22.994,0,44.214-7.592,61.293-20.403C343.146,170.374,334.868,163.442,324.955,163.442
		z"/>
	<path style="opacity:0.2;fill:#FFFFFF;enable-background:new    ;" d="M345.776,200.339c-11.866,1.812-20.957,12.06-20.957,24.433
		c0,12.372,9.091,22.621,20.957,24.433V200.339z"/>
	<path style="opacity:0.3;fill:#FFFFFF;enable-background:new    ;" d="M264.997,10.638c-13.263,9.984-21.842,25.859-21.842,43.738
		c0,30.219,24.498,54.716,54.716,54.716c5.788,0,11.364-0.906,16.601-2.571c0.014-0.53,0.04-1.057,0.04-1.591
		C314.512,76.402,288.177,22.81,264.997,10.638z"/>
</g>
<path d="M324.955,155.316h-25.419c14.133-12.228,23.101-30.274,23.101-50.386c0-16.862-8.266-42.202-21.06-64.557
	C292.949,25.295,275.553,0,255.999,0s-36.95,25.295-45.578,40.374c-12.794,22.355-21.06,47.695-21.06,64.557
	c0,20.112,8.968,38.157,23.101,50.386h-25.419c-15.961,0-28.947,12.986-28.947,28.948v59.908c0,13.381,10.131,24.435,23.124,25.908
	v217.07c0,13.703,11.148,24.851,24.851,24.851h99.857c13.702,0,24.851-11.148,24.851-24.851V315.146
	c12.993-1.475,23.124-12.528,23.124-25.91V184.264C353.903,168.302,340.917,155.316,324.955,155.316z M205.614,104.931
	c0-14.018,7.601-36.717,18.912-56.485c12.728-22.239,24.979-32.194,31.473-32.194c6.496,0,18.745,9.955,31.472,32.194
	c11.313,19.767,18.913,42.466,18.913,56.485c0,27.783-22.603,50.386-50.386,50.386S205.614,132.712,205.614,104.931z
	 M314.526,487.149c0,4.741-3.857,8.599-8.599,8.599h-99.857c-4.74,0-8.599-3.857-8.599-8.599V266.598
	c7.648-4.552,12.787-12.898,12.787-22.426v-13.618c0-5.42,4.409-9.828,9.829-9.828c5.42,0,9.828,4.409,9.828,9.828v26.276
	c0,14.381,11.7,26.082,26.082,26.082c14.381,0,26.082-11.701,26.082-26.082v-7.877c0-5.42,4.409-9.828,9.829-9.828
	c5.42,0,9.829,4.409,9.829,9.828v40.285c0,9.528,5.138,17.875,12.786,22.427L314.526,487.149L314.526,487.149z M337.65,289.236
	c0,5.421-4.41,9.829-9.829,9.829c-5.42,0-9.828-4.409-9.828-9.829V248.95c0-14.38-11.7-26.081-26.082-26.081
	c-14.381,0-26.082,11.701-26.082,26.081v7.877c0,5.421-4.41,9.829-9.829,9.829s-9.829-4.409-9.829-9.829v-26.276
	c0-14.38-11.7-26.081-26.082-26.081c-14.381,0-26.081,11.701-26.081,26.081v13.618c0,5.42-4.409,9.828-9.829,9.828
	c-5.42,0-9.829-4.409-9.829-9.828v-59.908c0-7,5.695-12.695,12.694-12.695h137.911c6.999,0,12.694,5.695,12.694,12.695v104.974
	H337.65z M255.999,138.31c17.675,0,32.055-14.379,32.055-32.055c0-15.305-15.166-47.716-32.055-47.716
	c-16.889,0-32.056,32.41-32.056,47.716C223.944,123.931,238.323,138.31,255.999,138.31z M255.999,74.9
	c5.02,2.29,15.803,20.749,15.803,31.355c0,8.713-7.089,15.803-15.803,15.803c-8.715,0-15.804-7.089-15.804-15.803
	C240.197,95.648,250.98,77.19,255.999,74.9z"/>
<g>
</g>
<g>
</g>
<g>
</g>
<g>
</g>
<g>
</g>
<g>
</g>
<g>
</g>
<g>
</g>
<g>
</g>
<g>
</g>
<g>
</g>
<g>
</g>
<g>
</g>
<g>
</g>
<g>
</g>
</svg>
